<svg xmlns="http://www.w3.org/2000/svg" width="1em" height="1em" viewBox="0 0 64 64"><path d="m2 31.44h2.77l0.598-1.486h1.569l0.607 1.486h22.551v-1.492l1.203 1.492h6.048v-1.095c0.304 0.501 1.751 1.095 2.428 1.095h4.243l0.602-1.486h1.573l0.62 1.486h5.928v-1.64l1.061 1.64h4.045v-9.377h-4.045v1.639l-1.117-1.639h-4.025v2.895l-1.272-2.895h-7.286c-1.091 0-2.277 0.59-2.753 1.072v-1.072h-21.636l-0.736 2.089-0.765-2.089h-4.812v2.922l-1.272-2.922h-3.894l-2.233 5.189zm3.035-8.238h2.294l3.025 7.05h-2l-0.57-1.397h-3.246l-0.566 1.397h-1.972zm1.119 1.652-0.984 2.44h1.974zm8.834 2.868 1.59-4.52h2.775v7.05h-1.756v-5.185l-1.876 5.185h-1.53l-1.868-5.185v5.185h-1.774v-7.05h2.802zm5.567-4.52h5.74v1.584h-3.949v1.198h3.855v1.472h-3.855v1.242h3.949v1.554h-5.74zm6.757 0h4.09a2.26 2.24 0 0 1 0.368 4.457l2.3 2.593h-2.141l-2.096-2.501h-0.74v2.501h-1.781zm3.772 1.576a0.45 0.4 0 0 1 0 1.476h-1.991v-1.476zm3.322-1.576h1.787v7.05h-1.787zm8.083 0v1.663h-1.965a0.88 1 0 0 0 0 3.836h0.674l-0.749 1.551c-1.809 0.063-3.408-1.021-3.408-3.502 0-2.275 1.354-3.486 3.408-3.548zm1.796 0h2.294l3.025 7.05h-2l-0.57-1.397h-3.246l-0.566 1.397h-1.972zm1.119 1.652-0.984 2.44h1.974zm9.487 2.738v-4.39h1.775v7.05h-2.163l-2.955-4.578v4.578h-1.736v-7.05h2.232zm-41.263 6.768v9.381h9.883l1.068-1.409 1.08 1.409h5.942v-2.136h1.53c0.438 0 1.023-0.081 1.533-0.4v2.536h3.925v-1.498l1.224 1.498h20.187c0.682 0 1.597-0.341 2-0.816v-8.565h-36.262l-1.159 1.38-1.05-1.38zm1.187 1.152h5.74v1.584h-3.949v1.198h3.855v1.472h-3.855v1.242h3.949v1.554h-5.74zm5.922 0h2.189l1.653 2.204 1.747-2.204h2.117l-2.83 3.556 2.765 3.494h-2.184l-1.615-2.171-1.618 2.171h-2.173l2.793-3.494zm7.92 0h4.037a1 1 0 0 1 0 4.823h-2.232v2.227h-1.805zm3.697 1.588a0.45 0.4 0 0 1 0 1.644h-1.892v-1.644zm3.468-1.588h4.09a2.26 2.24 0 0 1 0.368 4.457l2.3 2.593h-2.141l-2.096-2.501h-0.74v2.501h-1.781zm3.772 1.576a0.45 0.4 0 0 1 0 1.476h-1.991v-1.476zm3.351-1.576h5.74v1.584h-3.949v1.198h3.855v1.472h-3.855v1.242h3.949v1.554h-5.74zm11.769 1.582h-3.095a0.4 0.4 0 0 0 0 1.189h1.826a1 1 0 0 1 0 4.279h-3.94v-1.554h3.66a0.4 0.4 0 0 0 0-1.161h-1.709a1 1 0 0 1 7e-3 -4.335h3.994zm6.415 0h-3.095a0.4 0.4 0 0 0 0 1.189h1.826a1 1 0 0 1 0 4.279h-3.94v-1.554h3.66a0.4 0.4 0 0 0 0-1.161h-1.709a1 1 0 0 1 7e-3 -4.335h3.994z" fill="currentColor"/></svg>