<svg xmlns="http://www.w3.org/2000/svg" width="1em" height="1em" viewBox="0 0 64 64"><path d="m22.88 59.93c1.44 0.24 1.98-0.63 1.98-1.38 0-0.69-0.03-2.94-0.03-5.37-7.23 1.35-9.12-1.74-9.69-3.36-0.33-0.84-1.74-3.39-2.94-4.08-1.02-0.54-2.46-1.86-0.06-1.92 2.28-0.03 3.9 2.1 4.44 2.97 2.58 4.35 6.72 3.12 8.4 2.37 0.24-1.86 0.99-3.12 1.83-3.84-6.42-0.72-13.11-3.21-13.11-14.22 0-3.15 1.11-5.73 2.94-7.74-0.27-0.72-1.29-3.69 0.3-7.65 0 0 2.4-0.75 7.92 2.97 2.31-0.66 4.74-0.99 7.2-0.99s4.89 0.33 7.2 0.99c5.52-3.75 7.92-2.97 7.92-2.97 1.59 3.96 0.57 6.93 0.3 7.65 1.83 2.01 2.94 4.56 2.94 7.74 0 11.04-6.72 13.5-13.14 14.22 1.05 0.9 1.95 2.61 1.95 5.31 0 3.87-0.03 6.96-0.03 7.92 0 0.75 0.54 1.65 1.98 1.38a28.8 28.8 90 0 0 19.62-27.33 3 3 90 0 0-57.6 0 28.8 28.8 90 0 0 19.68 27.33z" fill="currentColor"/></svg>