<svg xmlns="http://www.w3.org/2000/svg" width="1em" height="1em" viewBox="0 0 64 64"><path d="m57.53 2h-51c-2.43 0-4.5 1.92-4.5 4.32v51.24c0 2.37 1.35 4.32 3.81 4.47h51c2.43-0.15 5.04-2.07 5.19-4.47v-51.24c-0.15-2.37-2.04-4.32-4.47-4.32zm-32.73 22.8h8.07v4.11h0.09c1.23-2.22 4.86-4.47 9.33-4.47 8.61 0 11.01 4.56 11.01 13.05v15.81h-8.55v-14.25c0-3.78-1.5-7.11-5.04-7.11-4.29 0-6.36 2.91-6.36 7.68v13.68h-8.55zm-14.25 28.5v-28.5h8.55v28.5zm9.63-38.46a5.34 5.34 90 1 1-10.68 0 5.34 5.34 90 0 1 10.68 0z" fill="currentColor"/></svg>