<svg xmlns="http://www.w3.org/2000/svg" width="1em" height="1em" viewBox="0 0 64 64"><path d="m2 23.18c1.41 0.29 2.7 0.69 4.08 1.23 1.3 0.52 1.55 0.98 1.84 2.07l3.9 14.93h5.08l7.89-18.81h-5.1l-5.04 12.75-2.07-10.83c-0.21-1.09-1.02-1.92-2.22-1.92h-8.23zm24.85-0.58-4.01 18.81h4.86l4.01-18.81zm18.9 0.51c-1.35-0.53-2.9-0.84-4.69-0.84-4.64 0-8.04 2.53-8.04 6.28 0 2.7 2.25 4.02 4.25 5.07 1.83 0.98 2.51 1.54 2.51 2.29 0 1.26-1.59 1.9-3.11 1.9-1.5 0-3.2-0.38-4.78-1.25l-0.86 4.12c1.99 0.75 3.12 1.04 5.49 1.04 4.04 0 8.32-1.8 8.32-6.45 0-4.93-6.77-5.31-6.77-7.46 0-1.61 3.34-2.28 6.81-0.72zm12.33-0.51h-4.21c-1 0-1.64 0.53-2 1.4l-7.3 17.41h5.11l1.02-2.84h6.2l0.6 2.84h4.5zm-3.43 5.06 1.48 7.06h-4.03z" fill="currentColor"/></svg>