<svg xmlns="http://www.w3.org/2000/svg" width="1em" height="1em" viewBox="0 0 64 64"><path d="m17.12 58.04a30 30 90 0 0 14.88 3.96 3 3 90 0 0 0-60 30 30 90 0 0-25.92 45.12l-4.08 14.88zm5.52-40.53c0.57 0 1.17 0.03 1.74 1.29 0.36 0.84 2.16 5.13 2.4 5.73 0.18 0.39 0.3 0.81 0.06 1.35-0.3 0.6-0.45 0.9-1.59 2.22-0.72 0.81-1.14 1.2-0.69 1.98 0.45 0.75 2.01 3.27 4.32 5.31 2.46 2.22 4.62 3.15 5.7 3.6 1.5 0.63 1.74 0.57 2.19 0.03 0.45-0.51 1.83-2.25 2.43-3 0.51-0.63 1.05-0.66 1.74-0.39 0.72 0.27 4.53 2.13 5.28 2.52 2.4 1.23 1.89 2.04 1.05 4.56-0.66 1.8-3.81 3.54-5.22 3.69-1.71 0.18-3.36 0.39-9.27-1.95-7.29-2.85-12.09-9.96-13.05-11.4-0.63-0.84-3.33-4.44-3.33-8.19 0-3.54 1.77-5.4 2.55-6.27 0.87-0.9 1.65-1.08 2.49-1.08z" fill="currentColor"/></svg>